# xmcd CD database file
#
# Track frame offsets:
#	150
#	21289
#	49098
#	65451
#	85371
#	107206
#	133571
#	157716
#	184375
#
# Disc length: 2846 seconds
#
# Revision: 0
# Processed by: cddbd v1.5.2PL0 Copyright (c) Steve Scherf et al.
# Submitted via: CDex 1.70beta2
#
DISCID=740b1c09
DTITLE=Jasper van't Hoff Hotlips - Neverland
DYEAR=2005
DGENRE=Jazz
TTITLE0=The Gift of Grab
TTITLE1=Neverneverland
TTITLE2=Temporary Crooked
TTITLE3=Iffy Passions
TTITLE4=The Shotgun Wedding
TTITLE5=Caresses
TTITLE6=Hoodwinking
TTITLE7=Ambush
TTITLE8=Dance on the Water
EXTD=YEAR: 2005
EXTT0=
EXTT1=
EXTT2=
EXTT3=
EXTT4=
EXTT5=
EXTT6=
EXTT7=
EXTT8=
PLAYORDER=
